<svg width="400" height="400" viewBox="0 0 400 400" fill="none" xmlns="http://www.w3.org/2000/svg">
<rect width="400" height="400" fill="#F3F4F6"/>
<path d="M200 120C177.909 120 160 137.909 160 160V240C160 262.091 177.909 280 200 280C222.091 280 240 262.091 240 240V160C240 137.909 222.091 120 200 120ZM200 140C210.455 140 220 149.545 220 160V240C220 250.455 210.455 260 200 260C189.545 260 180 250.455 180 240V160C180 149.545 189.545 140 200 140Z" fill="#9CA3AF"/>
<path d="M160 200H140V220H160V200Z" fill="#9CA3AF"/>
<path d="M260 200H240V220H260V200Z" fill="#9CA3AF"/>
<path d="M200 160H220V180H200V160Z" fill="#9CA3AF"/>
<path d="M200 220H220V240H200V220Z" fill="#9CA3AF"/>
<path d="M180 160H200V180H180V160Z" fill="#9CA3AF"/>
<path d="M180 220H200V240H180V220Z" fill="#9CA3AF"/>
</svg>
